<svg xmlns="http://www.w3.org/2000/svg" viewBox="0 0 60 60">
  <!-- Sechseck (Stabilität) mit elegantem S -->
  <defs>
    <linearGradient id="hex6" x1="0%" y1="0%" x2="100%" y2="100%">
      <stop offset="0%" style="stop-color:#1E3A5F"/>
      <stop offset="100%" style="stop-color:#0F172A"/>
    </linearGradient>
    <linearGradient id="gold6" x1="0%" y1="0%" x2="100%" y2="100%">
      <stop offset="0%" style="stop-color:#FCD34D"/>
      <stop offset="100%" style="stop-color:#F59E0B"/>
    </linearGradient>
  </defs>

  <!-- Sechseck -->
  <polygon points="30,3 52,16 52,44 30,57 8,44 8,16" fill="url(#hex6)"/>
  <polygon points="30,3 52,16 52,44 30,57 8,44 8,16" fill="none" stroke="#F59E0B" stroke-width="1.5" opacity="0.5"/>

  <!-- Premium S -->
  <path d="M36 18 L24 18 C20 18 17 21 17 25 C17 29 20 32 24 32 L36 32 C40 32 43 35 43 39 C43 43 40 46 36 46 L24 46"
        fill="none" stroke="url(#gold6)" stroke-width="4.5" stroke-linecap="round"/>
</svg>
