<svg xmlns="http://www.w3.org/2000/svg" viewBox="0 0 60 60">
  <!-- Negativ-Raum: Dunkler Block mit S ausgeschnitten -->
  <defs>
    <linearGradient id="darkSteel" x1="0%" y1="0%" x2="100%" y2="100%">
      <stop offset="0%" style="stop-color:#2D3748"/>
      <stop offset="100%" style="stop-color:#1A202C"/>
    </linearGradient>
  </defs>

  <!-- Äußerer Rahmen -->
  <rect x="4" y="4" width="52" height="52" rx="4" fill="url(#darkSteel)"/>

  <!-- S als Negativ-Raum (ausgeschnitten) durch Überlagerung -->
  <!-- Oberer Bogen -->
  <path d="M44 12 L16 12 C12 12 10 16 10 20 C10 24 12 28 16 28 L44 28 L44 22 L18 22 C16 22 16 20 18 18 L44 18 Z" fill="#E85A1E"/>

  <!-- Unterer Bogen -->
  <path d="M16 32 L44 32 C48 32 50 36 50 40 C50 44 48 48 44 48 L16 48 L16 42 L42 42 C44 42 44 40 42 38 L16 38 Z" fill="#E85A1E"/>
</svg>
