<svg xmlns="http://www.w3.org/2000/svg" viewBox="0 0 60 60">
  <defs>
    <linearGradient id="mainGradient" x1="0%" y1="0%" x2="100%" y2="100%">
      <stop offset="0%" style="stop-color:#FF9F1C"/>
      <stop offset="100%" style="stop-color:#E85A1E"/>
    </linearGradient>
  </defs>

  <!-- Hexagon shape - represents structure and stability -->
  <polygon points="30,3 54,17 54,43 30,57 6,43 6,17" fill="url(#mainGradient)"/>

  <!-- Inner hexagon for depth -->
  <polygon points="30,8 49,20 49,40 30,52 11,40 11,20" fill="none" stroke="white" stroke-width="1" opacity="0.2"/>

  <!-- Bold S with construction angle -->
  <path d="M38 18
           L22 18
           C18 18 15 21 15 25
           C15 29 18 32 22 32
           L38 32
           C42 32 45 35 45 39
           C45 43 42 46 38 46
           L22 46"
        fill="none"
        stroke="white"
        stroke-width="5"
        stroke-linecap="square"/>

  <!-- Upward accent - growth/building -->
  <path d="M38 18 L42 14 L46 14"
        fill="none"
        stroke="white"
        stroke-width="3"
        stroke-linecap="square"/>
</svg>
