<svg xmlns="http://www.w3.org/2000/svg" viewBox="0 0 60 60">
  <!-- Modernes S aus zwei ineinandergreifenden Elementen -->
  <defs>
    <linearGradient id="grad1" x1="0%" y1="0%" x2="100%" y2="100%">
      <stop offset="0%" style="stop-color:#374151"/>
      <stop offset="100%" style="stop-color:#1F2937"/>
    </linearGradient>
    <linearGradient id="grad2" x1="100%" y1="0%" x2="0%" y2="100%">
      <stop offset="0%" style="stop-color:#F59E0B"/>
      <stop offset="100%" style="stop-color:#D97706"/>
    </linearGradient>
  </defs>

  <!-- Oberes Element (dunkles C nach rechts offen) -->
  <path d="M46 8 L14 8 C8 8 4 14 4 22 C4 30 8 34 14 34 L36 34 L36 26 L16 26 C12 26 12 22 16 18 L46 18 Z"
        fill="url(#grad1)"/>

  <!-- Unteres Element (oranges C nach links offen) -->
  <path d="M14 52 L46 52 C52 52 56 46 56 38 C56 30 52 26 46 26 L24 26 L24 34 L44 34 C48 34 48 38 44 42 L14 42 Z"
        fill="url(#grad2)"/>
</svg>
