<svg xmlns="http://www.w3.org/2000/svg" viewBox="0 0 60 60">
  <!-- Minimalistisch - Geb채ude formt S -->

  <!-- Linkes hohes Geb채ude -->
  <rect x="8" y="6" width="16" height="48" fill="#1a1a1a"/>

  <!-- Rechtes niedrigeres Geb채ude -->
  <rect x="36" y="18" width="16" height="36" fill="#1a1a1a"/>

  <!-- Verbindungsbr체cke -->
  <rect x="24" y="28" width="12" height="8" fill="#E85A1E"/>

  <!-- Fenster links -->
  <rect x="11" y="12" width="4" height="5" fill="#E85A1E" opacity="0.7"/>
  <rect x="17" y="12" width="4" height="5" fill="#E85A1E" opacity="0.7"/>
  <rect x="11" y="20" width="4" height="5" fill="#E85A1E" opacity="0.7"/>
  <rect x="17" y="20" width="4" height="5" fill="#E85A1E" opacity="0.7"/>
  <rect x="11" y="40" width="4" height="5" fill="#E85A1E" opacity="0.7"/>
  <rect x="17" y="40" width="4" height="5" fill="#E85A1E" opacity="0.7"/>
  <rect x="11" y="48" width="4" height="5" fill="#E85A1E" opacity="0.7"/>
  <rect x="17" y="48" width="4" height="5" fill="#E85A1E" opacity="0.7"/>

  <!-- Fenster rechts -->
  <rect x="39" y="24" width="4" height="5" fill="#E85A1E" opacity="0.7"/>
  <rect x="45" y="24" width="4" height="5" fill="#E85A1E" opacity="0.7"/>
  <rect x="39" y="40" width="4" height="5" fill="#E85A1E" opacity="0.7"/>
  <rect x="45" y="40" width="4" height="5" fill="#E85A1E" opacity="0.7"/>
  <rect x="39" y="48" width="4" height="5" fill="#E85A1E" opacity="0.7"/>
  <rect x="45" y="48" width="4" height="5" fill="#E85A1E" opacity="0.7"/>
</svg>
